<svg width="80" height="80" viewBox="0 0 80 80" fill="none" xmlns="http://www.w3.org/2000/svg">
<path d="M30 41.4C33.9782 41.4 37.7936 39.8196 40.6066 37.0066C43.4197 34.1936 45 30.3782 45 26.4C45 22.4217 43.4197 18.6064 40.6066 15.7934C37.7936 12.9803 33.9782 11.4 30 11.4C26.0218 11.4 22.2064 12.9803 19.3934 15.7934C16.5804 18.6064 15 22.4217 15 26.4C15 30.3782 16.5804 34.1936 19.3934 37.0066C22.2064 39.8196 26.0218 41.4 30 41.4ZM30 46.4C24.6957 46.4 19.6086 44.2929 15.8579 40.5421C12.1071 36.7914 10 31.7043 10 26.4C10 21.0957 12.1071 16.0086 15.8579 12.2579C19.6086 8.50713 24.6957 6.39999 30 6.39999C35.3043 6.39999 40.3914 8.50713 44.1421 12.2579C47.8929 16.0086 50 21.0957 50 26.4C50 31.7043 47.8929 36.7914 44.1421 40.5421C40.3914 44.2929 35.3043 46.4 30 46.4ZM55 71.4V63.9C55 61.9109 54.2098 60.0032 52.8033 58.5967C51.3968 57.1902 49.4891 56.4 47.5 56.4H12.5C10.5109 56.4 8.60322 57.1902 7.1967 58.5967C5.79018 60.0032 5 61.9109 5 63.9V71.4C5 72.063 4.73661 72.6989 4.26777 73.1678C3.79893 73.6366 3.16304 73.9 2.5 73.9C1.83696 73.9 1.20107 73.6366 0.732234 73.1678C0.263393 72.6989 0 72.063 0 71.4V63.9C0 60.5848 1.31696 57.4054 3.66117 55.0612C6.00537 52.717 9.18479 51.4 12.5 51.4H47.5C50.8152 51.4 53.9946 52.717 56.3388 55.0612C58.683 57.4054 60 60.5848 60 63.9V71.4C60 72.063 59.7366 72.6989 59.2678 73.1678C58.7989 73.6366 58.163 73.9 57.5 73.9C56.837 73.9 56.2011 73.6366 55.7322 73.1678C55.2634 72.6989 55 72.063 55 71.4Z" fill="black"/>
</svg>
