<svg width="70" height="70" viewBox="0 0 70 70" fill="none" xmlns="http://www.w3.org/2000/svg">
<path d="M30.6819 61.364C30.6819 62.9458 29.3267 64.2281 27.655 64.2281C25.9833 64.2281 24.6281 62.9458 24.6281 61.364C24.6281 59.7822 25.9833 58.4999 27.655 58.4999C29.3267 58.4999 30.6819 59.7822 30.6819 61.364ZM16.1736 16.9708C16.1736 18.5526 14.8184 19.8349 13.1467 19.8349C11.475 19.8349 10.1198 18.5526 10.1198 16.9708C10.1198 15.3891 11.475 14.1068 13.1467 14.1068C14.8184 14.1068 16.1736 15.3891 16.1736 16.9708ZM67.9441 26.6882C67.9441 28.27 66.5889 29.5523 64.9172 29.5523C63.2455 29.5523 61.8903 28.27 61.8903 26.6882C61.8903 25.1064 63.2455 23.8242 64.9172 23.8242C66.5889 23.8242 67.9441 25.1064 67.9441 26.6882ZM33.8378 69.7667C31.7993 69.1842 29.8576 67.262 28.3039 64.2885C27.7084 63.1488 27.5938 63.0038 27.2865 63.0015C26.7501 62.9974 25.8565 62.5906 25.5488 62.2104C24.8431 61.3386 25.0315 60.2638 25.8019 59.492C26.0229 59.2706 26.0575 58.9988 26.0575 58.8879C26.0575 58.7771 25.9087 58.1659 25.7269 57.5297C25.332 56.1477 24.6072 52.9188 24.4826 51.9862C24.4337 51.6201 24.3528 51.2624 24.3029 51.1913C24.2431 51.1062 23.5425 51.2854 22.2487 51.7167C18.5502 52.9499 14.7142 53.9026 11.1178 54.4813C9.44922 54.7498 5.16163 54.7813 4.0617 54.5332C1.53481 53.9631 0.166851 52.715 0.0143934 50.8405C-0.0699382 49.8036 0.210433 48.8223 1.01099 47.3523C2.06815 45.4112 3.30897 43.8678 5.63253 41.604C7.53131 39.754 11.3171 36.6778 13.4135 35.2814L13.8673 34.9792L13.2056 34.5089C4.59362 28.3887 -0.249048 22.7745 0.0108456 19.2119C0.229589 16.2135 3.68939 14.882 9.75387 15.4624C11.1096 15.5921 11.1191 15.5912 11.5213 15.2934C12.748 14.3854 14.5624 14.696 15.3479 15.9486C15.6224 16.3864 15.7646 16.4819 16.3469 16.6199C17.4686 16.8856 20.7187 17.8319 22.4946 18.4098C23.411 18.708 24.192 18.9245 24.2303 18.8908C24.2687 18.8571 24.4218 18.1904 24.5707 17.4093C26.0777 9.50486 28.5826 3.77773 31.5951 1.34934C33.1377 0.105871 34.901 -0.20929 36.5045 0.471895C37.993 1.10427 39.7464 2.96699 41.1014 5.35541C42.0612 7.04725 43.3631 10.5434 44.1714 13.5995C44.5887 15.1775 45.2074 18.1034 45.2074 18.499C45.2074 18.655 45.2678 18.8156 45.3417 18.8557C45.4156 18.8959 46.3782 18.6349 47.4808 18.2758C57.3115 15.0737 65.2745 14.4725 68.3634 16.6992C70.3961 18.1645 70.1915 21.1002 67.8303 24.3473C67.427 24.9019 67.3428 25.111 67.4237 25.3568C67.4798 25.5273 67.5309 26.0475 67.5373 26.5128C67.5478 27.2699 67.5078 27.4062 67.1563 27.8114C66.601 28.4514 65.7415 28.7632 64.8005 28.6659C64.0994 28.5934 64.0485 28.6071 63.702 28.9618C63.0532 29.626 59.4514 32.5467 57.7748 33.7682C56.876 34.423 56.1405 35.0055 56.1405 35.0625C56.1405 35.1196 56.5989 35.4945 57.1591 35.8957C58.7887 37.0626 61.5181 39.2621 62.7513 40.4021C68.4246 45.6467 70.6453 49.8039 69.1806 52.4376C67.7494 55.011 62.7809 55.4617 54.9182 53.7313C52.9136 53.2902 48.1447 51.9231 46.439 51.3007C45.8839 51.0981 45.386 50.9736 45.3326 51.0241C45.2791 51.0746 45.1012 51.8417 44.9371 52.7289C43.5084 60.4522 41.103 66.0792 38.1884 68.5161C37.7457 68.8863 37.0761 69.3262 36.7006 69.4936C35.8472 69.874 34.6224 69.9909 33.8378 69.7667ZM35.6663 68.1993C38.9432 67.3432 41.7473 61.6067 43.3725 52.4348C43.5583 51.3859 43.6652 50.4891 43.61 50.4418C43.5549 50.3945 42.6235 50.027 41.5404 49.6253C40.4573 49.2235 38.5196 48.4161 37.2345 47.831L34.898 46.7673L32.6847 47.7627C30.8073 48.6071 28.7151 49.4438 26.431 50.2637C25.987 50.4231 25.9217 50.4972 25.9222 50.841C25.9229 51.3869 26.2522 53.1327 26.8078 55.5366C27.5095 58.5724 27.5233 58.6051 28.1938 58.823C28.9286 59.0617 29.3535 59.332 29.683 59.9769C30.0213 60.6391 29.9993 61.4417 29.4626 62.1548C29.0151 62.7494 29.0023 62.6965 30.0297 64.4976C31.2666 66.6659 32.5453 67.8593 34.0706 68.2689C34.5949 68.4097 34.9139 68.3958 35.6663 68.1993ZM64.9445 53.3189C65.9634 53.1426 67.071 52.6105 67.4975 52.0926C68.049 51.4228 68.2022 50.8998 68.1294 49.9346C67.9788 47.9374 66.0892 45.2787 62.4218 41.9039C60.2733 39.9268 54.9677 35.9616 54.578 36.0416C54.4656 36.0647 53.5183 36.6485 52.4729 37.3389C51.4275 38.0294 49.652 39.1359 48.5275 39.7978L46.4828 41.0013L46.3191 43.2827C46.2291 44.5374 46.0297 46.4288 45.8762 47.4858C45.7226 48.5427 45.6248 49.432 45.6588 49.4619C45.8167 49.6009 49.3166 50.7789 51.4549 51.4129C57.3808 53.1697 62.0196 53.8252 64.9445 53.3189ZM9.98751 53.2034C13.4285 52.8056 17.9676 51.6861 22.599 50.0931C23.6193 49.7422 24.0198 49.5479 24.0187 49.4043C24.0179 49.2942 23.8979 48.3638 23.7522 47.3366C23.6065 46.3093 23.4135 44.3943 23.3231 43.0809L23.1589 40.6929L22.4012 40.2995C21.0799 39.6137 18.0238 37.7865 16.6787 36.8782C15.965 36.3962 15.332 36.0018 15.2722 36.0018C15.1255 36.0018 14.3639 36.5276 12.3402 38.0261C10.2495 39.574 7.09475 42.2706 5.69257 43.7082C0.837078 48.6864 0.453209 52.2366 4.67337 53.1344C5.64049 53.3402 8.4853 53.3771 9.98751 53.2034ZM28.2004 48.0548C29.2254 47.656 30.7229 47.029 31.5283 46.6614L32.9925 45.993L31.6641 45.3843C30.0198 44.6309 27.6482 43.4295 26.426 42.7308C25.0128 41.9229 25.1064 41.8777 25.1091 43.3668C25.1115 44.6747 25.2417 46.0986 25.5264 47.9294C25.7113 49.1186 25.4924 49.1083 28.2004 48.0548ZM44.0452 48.2783C44.5372 45.0356 44.7795 42.0952 44.5548 42.0952C44.4744 42.0952 44.3733 42.1454 44.3302 42.2068C44.2025 42.3886 40.1083 44.4947 38.3843 45.2655C37.5075 45.6576 36.7894 46.01 36.7885 46.0488C36.7843 46.2289 43.2765 48.8988 43.7299 48.9033C43.8934 48.905 43.9746 48.7441 44.0452 48.2783ZM37.2566 43.988C39.4768 42.9384 42.5189 41.3626 44.0389 40.4748L44.7588 40.0543L44.8473 38.6067C44.9565 36.8194 44.935 30.6895 44.8178 30.2264C44.746 29.9425 44.3587 29.6846 42.4403 28.6433C41.1798 27.9591 40.1325 27.3993 40.113 27.3993C40.0935 27.3993 39.383 27.0588 38.5341 26.6426C35.6873 25.2468 35.1668 25.0097 34.95 25.0097C34.4397 25.0097 27.8594 28.2403 25.4896 29.6543C24.9008 30.0057 24.8473 30.0801 24.7645 30.6629C24.6015 31.8102 24.7487 39.7356 24.9383 40.0279C25.0895 40.2609 27.5222 41.6668 29.2845 42.5396C31.7582 43.7649 34.578 45.0765 34.744 45.0791C34.8529 45.0808 35.9836 44.5898 37.2566 43.988ZM33.5821 38.4196C31.1844 37.6642 30.0611 35.242 31.2012 33.2857C31.7335 32.3724 32.5914 31.7841 33.7823 31.5157C34.8233 31.2811 35.477 31.3542 36.6094 31.8319C38.9997 32.8403 39.6465 35.7005 37.8837 37.4667C36.9235 38.4287 34.9786 38.8596 33.5821 38.4196ZM22.9337 34.9792C22.9337 31.8054 22.8983 30.9874 22.764 31.0553C21.7011 31.5922 16.6183 34.8884 16.6183 35.0408C16.6183 35.0945 17.0109 35.3998 17.4908 35.7194C18.643 36.4869 22.7019 38.9627 22.8319 38.9773C22.8879 38.9836 22.9337 37.1845 22.9337 34.9792ZM49.4984 37.3459C50.9652 36.4424 52.3874 35.5289 52.6589 35.3161C53.1427 34.9368 53.1471 34.9253 52.881 34.7434C50.579 33.1709 47.057 30.9837 46.8267 30.9837C46.7617 30.9837 46.6916 32.7848 46.671 34.9863C46.6503 37.1877 46.678 38.9889 46.7325 38.9888C46.787 38.9888 48.0317 38.2495 49.4984 37.3459ZM18.565 31.9148C20.2001 30.8827 21.9073 29.8357 22.3587 29.5883L23.1796 29.1384L23.2661 27.8208C23.3935 25.8807 23.5969 23.9414 23.8428 22.3214C24.1696 20.1695 24.2422 20.3893 23.0695 19.9815C21.7466 19.5214 17.5542 18.2905 16.3916 18.0208L15.4858 17.8107L15.0666 18.2308C14.2376 19.0614 12.9421 19.2815 11.9039 18.7682C11.3597 18.4991 10.8171 17.8261 10.6589 17.2239C10.5801 16.9241 10.516 16.9007 9.55545 16.8215C7.80023 16.6768 5.18458 16.8185 4.27408 17.1077C-0.0784201 18.4898 1.22862 22.646 7.85181 28.4843C9.08788 29.5738 11.016 31.1347 12.1364 31.9528C15.1254 34.1352 15.0797 34.1071 15.3568 33.9363C15.4862 33.8566 16.9299 32.947 18.565 31.9148ZM56.1342 32.9476C58.2206 31.4802 59.443 30.5299 61.3365 28.9034L62.8654 27.5899L62.78 27.0233C62.6584 26.2171 62.8134 25.5223 63.2977 25.037C63.8594 24.4743 64.3887 24.2451 65.2167 24.2998L65.9192 24.3462L66.5611 23.513C67.9944 21.6528 68.519 19.7034 67.8986 18.5431C67.5381 17.869 67.2093 17.589 66.3267 17.2047C64.1382 16.2519 59.7002 16.4677 54.2391 17.7926C51.8694 18.3675 45.8988 20.1799 45.6481 20.4004C45.6078 20.4359 45.7078 21.4202 45.8702 22.5879C46.1437 24.5548 46.423 27.5763 46.4277 28.6198C46.4297 29.0455 46.4785 29.0918 47.6181 29.7481C49.5958 30.8869 52.1384 32.4793 53.2884 33.2993C53.886 33.7254 54.4055 34.0775 54.4428 34.0817C54.4802 34.086 55.2413 33.5756 56.1342 32.9476ZM44.6641 27.3569C44.6641 25.8741 44.0837 21.0669 43.9047 21.0669C43.6962 21.0669 36.9227 23.9613 36.9227 24.0504C36.9227 24.0859 37.2405 24.2433 37.6288 24.4C38.6926 24.8293 42.7186 26.8787 43.6455 27.4627C44.0937 27.7451 44.5063 27.9807 44.5623 27.9864C44.6183 27.9921 44.6641 27.7088 44.6641 27.3569ZM25.6291 27.6569C26.5221 27.111 30.3312 25.1433 31.5893 24.5781L32.9787 23.9538L32.1325 23.5446C30.355 22.6851 26.0865 21.0316 25.8507 21.1112C25.6597 21.1756 25.5923 21.5359 25.3222 23.9344C24.8556 28.077 24.8598 28.1271 25.6291 27.6569ZM36.2121 22.5166C37.4683 21.964 41.2139 20.475 42.9665 19.8317C43.9334 19.4767 43.9077 19.7381 43.2908 16.5267C42.0534 10.0858 40.0964 5.21941 37.907 3.13911C36.8132 2.09981 35.9923 1.71293 34.8855 1.71509C33.9184 1.71697 33.1563 2.02619 32.3331 2.75077C29.7805 4.99761 27.672 10.0821 26.3479 17.1838C25.9672 19.2252 25.951 19.3868 26.1146 19.502C26.1952 19.5588 27.2391 19.9829 28.4342 20.4446C29.6294 20.9062 31.5546 21.6876 32.7124 22.1811C33.8702 22.6745 34.8339 23.0827 34.854 23.0882C34.874 23.0936 35.4852 22.8364 36.2121 22.5166Z" fill="black"/>
</svg>
