<svg width="60" height="60" viewBox="0 0 60 60" fill="none" xmlns="http://www.w3.org/2000/svg">
<path d="M35.0232 0.00403356L20.3977 58.6931L24.9316 60L39.5496 1.31092L35.0269 0L35.0232 0.00403356ZM13.91 13.8555L1.49338 26.3193C1.02245 26.7876 0.646673 27.3556 0.389672 27.9877C0.13267 28.6197 0 29.3021 0 29.9919C0 30.6818 0.13267 31.3642 0.389672 31.9962C0.646673 32.6282 1.02245 33.1962 1.49338 33.6645L13.6813 46.1324L17.1351 42.7039L4.68098 29.998L17.1351 17.4454L13.91 13.8555ZM58.5102 26.3234L46.0973 13.8555L42.8684 17.526L55.3188 29.9939L42.8684 42.5425L46.3185 45.9711L58.5102 33.6686C58.9801 33.1996 59.355 32.6314 59.6113 31.9995C59.8677 31.3675 60 30.6854 60 29.996C60 29.3065 59.8677 28.6244 59.6113 27.9925C59.355 27.3605 58.9801 26.7923 58.5102 26.3234Z" fill="black"/>
</svg>
